<svg xmlns="http://www.w3.org/2000/svg" width="152" height="42" fill="none"><g clip-path="url(#a)"><path fill="#9C9C9C" d="M12.333 24.61v5.506c0 2.752-1.212 3.745-3.14 3.745-1.926 0-3.137-.993-3.137-3.745V9.304c0-2.752 1.212-3.799 3.139-3.799 1.927 0 3.138 1.047 3.138 3.8v4.129h5.726V9.69c0-6.167-3.084-9.69-9.03-9.69S0 3.523 0 9.69v20.04c0 6.167 3.083 9.691 9.03 9.691 5.945 0 9.029-3.524 9.029-9.69v-5.12h-5.726ZM35.18.44l6.167 38.54h-6.111l-1.047-6.992h-7.432l-1.046 6.993h-5.56L26.317.44h8.863Zm-4.79 6.827L27.53 26.758h5.835L30.502 7.266h-.11v.001Zm32.594 31.714H56.82c-.33-.992-.551-1.598-.551-4.736V28.19c0-3.578-1.211-4.9-3.964-4.9h-2.092v15.692h-6.056V.44h9.14c6.275 0 8.973 2.918 8.973 8.864v3.028c0 3.964-1.267 6.496-3.964 7.763 3.028 1.376 4.019 4.239 4.019 8.259V34.3c0 1.873.056 3.249.661 4.68ZM53.13 5.946h-2.918v11.838h2.367c2.258 0 3.634-.99 3.634-4.074v-3.8c0-2.752-.936-3.964-3.083-3.964ZM81.442.44l6.167 38.54h-6.111l-1.046-6.993h-7.433l-1.046 6.993h-5.56L72.578.44h8.863Zm-4.79 6.826L73.79 26.758h5.836L76.763 7.266h-.11v.001ZM93.213.441H87.1l5.946 38.54h9.029L108.021.44h-5.56l-4.57 31.436h-.11L93.21.44Zm29.33 0 6.167 38.54h-6.111l-1.046-6.993h-7.433l-1.047 6.993h-5.56L113.679.44h8.863Zm-4.789 6.826-2.863 19.491h5.836l-2.863-19.492h-.11v.001Zm27.562 31.714h6.222V.44h-5.396v23.068h-.11L139.919.44h-7.597v38.54h5.451V11.065h.109l7.433 27.916Z"/></g><defs><clipPath id="a"><path fill="#fff" d="M0 0h151.537v41.131H0z"/></clipPath></defs></svg>