<svg xmlns="http://www.w3.org/2000/svg" width="165" height="43" fill="none"><path fill="#9C9C9C" fill-rule="evenodd" d="M24.921 18.238h2.94c3.04 0 4.682 3.564 2.703 5.873l-2.88 3.355a8.001 8.001 0 0 0 2.943 5.039 8.02 8.02 0 0 0 10.847-.834 7.998 7.998 0 0 0 2.138-5.43 2.665 2.665 0 0 1 2.67-2.667 2.672 2.672 0 0 1 2.67 2.667 13.324 13.324 0 0 1-7.213 11.837 13.366 13.366 0 0 1-16.818-3.837 13.366 13.366 0 0 1-21.51-.204 13.324 13.324 0 0 1-2.522-7.796 2.665 2.665 0 0 1 2.67-2.667A2.672 2.672 0 0 1 6.23 26.24a7.996 7.996 0 0 0 5.92 7.736 8.014 8.014 0 0 0 10.009-6.512l-2.882-3.355c-1.978-2.308-.337-5.87 2.706-5.87l2.938-.002Z" clip-rule="evenodd"/><path fill="#9C9C9C" d="M37.381 11.127A5.335 5.335 0 0 0 39.424.863 5.336 5.336 0 0 0 37.381.46a5.336 5.336 0 0 0-3.775 9.107 5.338 5.338 0 0 0 3.775 1.56Zm-24.92 0A5.335 5.335 0 0 0 14.504.864 5.336 5.336 0 0 0 12.46.459a5.336 5.336 0 0 0-4.933 7.376 5.336 5.336 0 0 0 4.933 3.292Zm73.531-9.365c.823 0 1.498.235 2.026.705.528.47.793 1.086.793 1.85v26.34c0 .794-.25 1.425-.75 1.895-.497.47-1.159.705-1.98.705-.823 0-1.483-.235-1.983-.704-.5-.47-.75-1.102-.75-1.894v-1.102c-.645 1.204-1.585 2.143-2.819 2.819-1.203.675-2.584 1.013-4.14 1.013-1.851 0-3.51-.47-4.977-1.41-1.44-.94-2.57-2.26-3.392-3.964-.794-1.732-1.19-3.714-1.19-5.946 0-2.232.396-4.185 1.19-5.86.822-1.672 1.952-2.965 3.392-3.875 1.438-.91 3.098-1.366 4.977-1.366 1.556 0 2.937.323 4.141.97a6.721 6.721 0 0 1 2.774 2.73V4.229c0-.733.235-1.32.705-1.761.5-.47 1.16-.705 1.983-.705Zm-8.15 27.355c1.763 0 3.114-.602 4.053-1.807.969-1.204 1.454-2.922 1.454-5.153 0-2.232-.485-3.936-1.454-5.11-.94-1.204-2.275-1.807-4.008-1.807-1.762 0-3.128.588-4.097 1.763-.969 1.175-1.454 2.863-1.454 5.066 0 2.232.485 3.964 1.454 5.198.969 1.234 2.32 1.85 4.053 1.85Zm26.456 4.272c-2.202 0-4.141-.455-5.814-1.365-1.645-.91-2.922-2.217-3.833-3.92-.91-1.704-1.366-3.686-1.366-5.947 0-2.262.455-4.23 1.366-5.903.91-1.703 2.188-3.01 3.832-3.92 1.674-.91 3.613-1.366 5.815-1.366 2.202 0 4.126.454 5.77 1.366a9.144 9.144 0 0 1 3.833 3.92c.91 1.674 1.366 3.641 1.366 5.903 0 2.262-.456 4.243-1.366 5.946a9.144 9.144 0 0 1-3.833 3.92c-1.644.91-3.569 1.366-5.77 1.366Zm-.044-4.273c1.792 0 3.157-.587 4.096-1.762.941-1.174 1.411-2.907 1.411-5.197 0-2.262-.47-3.98-1.411-5.154-.939-1.204-2.29-1.806-4.052-1.806-1.761 0-3.129.602-4.096 1.806-.94 1.175-1.41 2.892-1.41 5.154 0 2.29.47 4.023 1.41 5.197.939 1.175 2.29 1.762 4.052 1.762Zm33.794-18.06c.823 0 1.483.236 1.982.704.5.471.749 1.102.749 1.894v17.4c0 3.377-.939 5.932-2.819 7.666-1.88 1.732-4.654 2.597-8.325 2.597-3.201 0-5.874-.6-8.017-1.805-1.086-.646-1.63-1.425-1.63-2.335 0-.646.147-1.16.441-1.541a1.543 1.543 0 0 1 1.233-.574c.265 0 .587.06.969.178.381.146.779.308 1.189.483.92.392 1.861.73 2.82 1.014.851.234 1.82.352 2.907.352 3.847 0 5.77-1.879 5.77-5.639v-2.818c-.646 1.204-1.586 2.143-2.818 2.82-1.234.645-2.644.968-4.229.968-1.88 0-3.554-.44-5.023-1.32-1.438-.912-2.568-2.174-3.391-3.789-.822-1.616-1.234-3.48-1.234-5.595 0-2.114.397-3.979 1.19-5.594.822-1.645 1.968-2.907 3.435-3.788 1.469-.91 3.143-1.366 5.023-1.366 1.585 0 2.995.338 4.229 1.013a6.595 6.595 0 0 1 2.818 2.775v-1.145c0-.763.25-1.38.749-1.85.499-.47 1.161-.704 1.982-.704Zm-8.325 17.092c1.762 0 3.127-.574 4.096-1.718.999-1.146 1.498-2.717 1.498-4.714 0-2.026-.499-3.612-1.498-4.757-.969-1.145-2.334-1.718-4.096-1.718-1.733 0-3.099.573-4.097 1.718-.998 1.145-1.498 2.73-1.498 4.757 0 1.997.5 3.568 1.498 4.714.998 1.145 2.364 1.718 4.097 1.718Zm24.556 5.24c-3.201 0-5.785-.63-7.752-1.893-.94-.558-1.41-1.351-1.41-2.379 0-.587.162-1.057.484-1.409.324-.382.72-.573 1.19-.573.499 0 1.189.235 2.07.705.94.44 1.792.779 2.555 1.013.793.235 1.791.352 2.995.352 1.234 0 2.188-.206 2.864-.617.705-.411 1.056-.983 1.056-1.718 0-.497-.146-.895-.44-1.188-.264-.294-.763-.559-1.497-.794-.706-.264-1.792-.557-3.26-.88-2.613-.529-4.493-1.278-5.639-2.247-1.116-.968-1.673-2.305-1.673-4.008a5.69 5.69 0 0 1 1.145-3.48c.763-1.057 1.806-1.865 3.127-2.423 1.351-.587 2.878-.881 4.581-.881 1.234 0 2.423.162 3.569.485 1.092.27 2.134.716 3.083 1.32.94.588 1.41 1.366 1.41 2.336 0 .587-.162 1.087-.485 1.497-.323.382-.72.574-1.19.574-.322 0-.646-.06-.969-.177a28.41 28.41 0 0 1-1.145-.617c-.852-.44-1.585-.763-2.202-.968-.617-.235-1.38-.353-2.291-.353-1.087 0-1.952.22-2.599.66-.617.44-.925 1.043-.925 1.807 0 .733.324 1.292.97 1.673.646.382 1.894.764 3.744 1.146 1.968.412 3.509.88 4.625 1.41 1.116.528 1.908 1.189 2.378 1.981.5.794.749 1.807.749 3.04 0 1.997-.837 3.598-2.51 4.801-1.645 1.204-3.848 1.806-6.608 1.806Z"/></svg>