<svg xmlns="http://www.w3.org/2000/svg" width="151" height="55" fill="none"><g clip-path="url(#a)"><path fill="#9C9C9C" d="m26.965 11.673-4.981 30.63h-7.157l1.818-11.06H8.936l-1.781 11.06H0l5.021-30.63h7.117l-2.134 12.932h7.708l2.137-12.932h7.116Zm14.678 30.63.239-6.679h-6.603l-1.938 6.679H25.79l10.162-30.63h13.046l.16 30.63h-7.514Zm-1.62-23.186L36.9 29.923h5.18l.434-10.804-2.491-.002Zm39.84-7.444-4.982 30.63h-7.157l-4.98-16.76-2.689 16.76h-7.158l5.021-30.63h7.354l4.904 15.656 2.568-15.656h7.12Zm16.696 0c3.453 0 5.918.936 7.393 2.807 1.081 1.418 1.62 3.191 1.62 5.318 0 .767-.065 1.574-.196 2.425l-1.542 9.487c-.527 3.204-1.819 5.771-3.875 7.7-2.056 1.93-4.718 2.893-7.988 2.893H80.466l5.022-30.63H96.56Zm-2.492 6.637h-2.57l-2.806 17.355h3.756c1.238 0 2.2-.355 2.886-1.063.712-.738 1.2-1.928 1.461-3.573l1.148-6.977c.1-.563.153-1.132.159-1.703 0-2.695-1.344-4.039-4.034-4.039Zm32.696 23.993h-19.848l5.023-30.63h19.848l-1.107 6.637h-12.731l-.91 5.743h10.517l-1.106 6.635h-10.518l-.79 4.978h12.731l-1.109 6.637Zm22.584 0h-18.03l5.023-30.63h7.117l-3.914 23.993h10.911l-1.107 6.637Zm-69.822 5.45h68.78l-2.149 6.367h-68.78l2.15-6.366ZM7.523 0H82.75L80.6 6.367H5.373L7.523 0Z"/></g><defs><clipPath id="a"><path fill="#fff" d="M0 0h150.454v54.12H0z"/></clipPath></defs></svg>