<svg xmlns="http://www.w3.org/2000/svg" width="161" height="39" fill="none"><g clip-path="url(#a)"><path fill="#9C9C9C" d="M52.63 38.447V0h-9.715L22.6 29.667l-3.429-4.313c6.131-.935 9.56-6.338 9.56-12.105 0-5.508-3.013-10.132-7.066-11.898C19.64.468 16.625 0 12.625 0H0v38.447h9.404V26.03h.104l8.884 12.417h9.924l3.377-5.56H42.81v5.56h9.82ZM9.405 19.327V8.625h3.74c3.69 0 6.183 1.87 6.183 5.195 0 3.533-2.338 5.507-6.235 5.507H9.404Zm33.407 5.767H36.37l6.338-10.65h.104v10.65Zm49.226 13.353V0h-9.404l.415 24.315L68.085 0h-8.468v38.447h9.403l-.26-23.484 14.756 23.484h8.52Zm28.357 0v-8.625h-11.95v-6.598h11.586V14.6h-11.586V8.625h11.95V0H99.04v38.447h21.354Zm39.033 0-13.56-19.275L158.596 0h-10.287L137.45 17.301h-.104V0h-9.819v38.447h9.819V21.821h.104l10.495 16.626h11.482Z"/></g><defs><clipPath id="a"><path fill="#fff" d="M0 0h160.196v38.967H0z"/></clipPath></defs></svg>