<svg xmlns="http://www.w3.org/2000/svg" width="37" height="37" fill="none"><path fill="#fff" d="M18.047.842c-4.903.077-5.515.11-7.438.225-1.92.12-3.224.444-4.368.909a8.839 8.839 0 0 0-3.164 2.131 8.807 8.807 0 0 0-2.031 3.23C.617 8.496.334 9.809.276 11.733c-.06 1.926-.068 2.539.009 7.441.077 4.903.11 5.515.226 7.438.12 1.92.443 3.225.908 4.368a8.852 8.852 0 0 0 2.132 3.165 8.825 8.825 0 0 0 3.23 2.03c1.16.427 2.472.712 4.394.77 1.927.06 2.539.069 7.442-.009 4.902-.077 5.514-.11 7.438-.226 1.919-.12 3.224-.445 4.367-.908a8.873 8.873 0 0 0 3.165-2.132 8.816 8.816 0 0 0 2.03-3.23c.428-1.157.712-2.472.77-4.394.06-1.927.07-2.539-.008-7.442-.078-4.902-.11-5.514-.226-7.438-.12-1.919-.445-3.225-.908-4.367a8.859 8.859 0 0 0-2.132-3.165 8.794 8.794 0 0 0-3.23-2.03c-1.158-.43-2.473-.712-4.395-.77-1.926-.06-2.538-.069-7.441.009Zm.051 3.248c4.817-.076 5.392-.061 7.296-.008 1.76.055 2.72.331 3.359.57.85.314 1.455.695 2.1 1.316a5.576 5.576 0 0 1 1.38 2.055c.257.63.566 1.581.674 3.34.116 1.902.144 2.473.22 7.292.076 4.818.063 5.392.004 7.296-.064 1.76-.342 2.72-.58 3.359-.324.85-.698 1.455-1.32 2.1-.62.64-1.223 1.04-2.053 1.38-.628.256-1.594.566-3.352.674-1.915.116-2.478.144-7.306.22-4.829.077-5.393.063-7.309.005-1.762-.064-2.737-.342-3.373-.58-.86-.324-1.455-.698-2.095-1.32-.643-.62-1.057-1.223-1.386-2.054-.258-.627-.565-1.593-.685-3.35-.097-1.895-.13-2.48-.207-7.284-.076-4.807-.06-5.394-.023-7.312.064-1.761.34-2.735.578-3.37.303-.862.698-1.455 1.321-2.098.62-.64 1.202-1.056 2.053-1.384.627-.26 1.572-.567 3.33-.685 1.916-.098 2.48-.13 7.306-.206l.068.044Zm.088 5.531a9.268 9.268 0 0 0-9.121 9.414 9.268 9.268 0 0 0 9.413 9.12 9.268 9.268 0 0 0 9.12-9.413 9.268 9.268 0 0 0-9.412-9.12Zm.24 15.283a6.015 6.015 0 0 1-6.11-5.92 6.015 6.015 0 0 1 5.92-6.111 6.015 6.015 0 0 1 6.111 5.92 6.015 6.015 0 0 1-5.92 6.111ZM29.98 9.07a2.167 2.167 0 0 1-2.131 2.2 2.167 2.167 0 0 1-2.2-2.132 2.167 2.167 0 0 1 4.331-.068Z"/></svg>